<svg width="137" height="197" viewBox="0 0 137 197" fill="none" xmlns="http://www.w3.org/2000/svg">
<circle cx="68.5" cy="102.5" r="68.5" fill="white"/>
<g clip-path="url(#clip0_5_67)">
<path d="M69.6743 111.688L60.5231 118.419C59.0553 119.514 57.3854 120.308 55.6095 120.755C53.8337 121.201 51.987 121.293 50.1758 121.023C48.3645 120.753 46.6245 120.128 45.056 119.183C43.4874 118.238 42.1213 116.992 41.0362 115.517C39.9512 114.042 39.1686 112.367 38.7336 110.588C38.2987 108.809 38.2198 106.962 38.5017 105.152C38.7836 103.343 39.4206 101.607 40.376 100.045C41.3315 98.4828 42.5865 97.1251 44.0689 96.0499L47.1174 93.8075C47.517 93.5024 47.9735 93.2799 48.46 93.1531C48.9466 93.0262 49.4535 92.9976 49.9513 93.0688C50.449 93.1399 50.9276 93.3095 51.3592 93.5676C51.7907 93.8258 52.1664 94.1672 52.4646 94.5721C52.7627 94.977 52.9772 95.4373 53.0956 95.926C53.214 96.4146 53.2338 96.922 53.154 97.4185C53.0742 97.9149 52.8963 98.3905 52.6307 98.8175C52.3651 99.2444 52.0172 99.6142 51.6072 99.9053L48.5554 102.152C47.2154 103.147 46.3241 104.633 46.0766 106.283C45.829 107.934 46.2454 109.615 47.2346 110.96C48.2237 112.304 49.7052 113.202 51.3547 113.457C53.0042 113.711 54.6875 113.302 56.0361 112.319L65.1874 105.588C66.1769 104.86 66.9326 103.86 67.3619 102.709C67.7913 101.558 67.8755 100.307 67.6044 99.1096C67.506 98.6826 67.4005 98.2801 67.2879 97.902L66.9227 96.6615C66.4597 95.0077 66.3415 93.7716 68.0847 92.4871C70.5926 90.6424 72.5157 91.5125 73.9409 94.4442C75.3567 97.364 75.7052 100.687 74.9258 103.837C74.1464 106.987 72.2884 109.765 69.6743 111.688ZM86.9588 98.9735L83.9103 101.216C83.1006 101.791 82.0976 102.024 81.1172 101.867C80.1369 101.709 79.2577 101.173 78.669 100.373C78.0803 99.5737 77.8291 98.5749 77.9697 97.592C78.1102 96.6091 78.6312 95.7207 79.4204 95.1182L82.4693 92.8732C83.1531 92.3887 83.7334 91.7728 84.1766 91.0615C84.6198 90.3502 84.9169 89.5578 85.0505 88.7305C85.1842 87.9032 85.1517 87.0576 84.955 86.2429C84.7584 85.4283 84.4014 84.661 83.9051 83.9858C83.4087 83.3105 82.7828 82.7409 82.0639 82.3102C81.3451 81.8795 80.5476 81.5962 79.7181 81.4769C78.8886 81.3577 78.0436 81.4048 77.2325 81.6156C76.4215 81.8264 75.6605 82.1966 74.994 82.7047L65.8427 89.4361C64.8532 90.1636 64.0975 91.1641 63.6682 92.3147C63.2389 93.4654 63.1546 94.7163 63.4257 95.9142C63.5241 96.3412 63.6296 96.7437 63.7423 97.1218L64.1074 98.3623C64.5705 100.016 64.6882 101.255 62.9454 102.537C60.4375 104.381 58.5144 103.511 57.0893 100.58C55.6734 97.6598 55.3249 94.3364 56.1043 91.1864C56.8837 88.0364 58.7418 85.2589 61.3558 83.3363L70.507 76.6048C71.9748 75.5099 73.6447 74.7161 75.4206 74.2692C77.1964 73.8223 79.0431 73.7311 80.8544 74.0009C82.6656 74.2706 84.4056 74.896 85.9741 75.8409C87.5427 76.7859 88.9088 78.0318 89.9939 79.5069C91.0789 80.982 91.8615 82.6572 92.2965 84.436C92.7315 86.2148 92.8103 88.0621 92.5284 89.8715C92.2465 91.6808 91.6095 93.4166 90.6541 94.9788C89.6986 96.541 88.4411 97.8983 86.9588 98.9735Z" fill="#1C1844" fill-opacity="0.28"/>
</g>
<path d="M106.531 146.672C101.323 151.099 95.5156 154.51 89.1094 156.906C82.7031 159.25 76.0365 160.422 69.1094 160.422C63.7969 160.422 58.6667 159.719 53.7188 158.312C48.8229 156.958 44.2396 155.031 39.9688 152.531C35.6979 149.979 31.7917 146.958 28.25 143.469C24.7083 139.927 21.6875 136.021 19.1875 131.75C16.6875 127.427 14.7344 122.792 13.3281 117.844C11.974 112.896 11.2969 107.766 11.2969 102.453C11.2969 97.1406 11.974 92.0365 13.3281 87.1406C14.7344 82.2448 16.6875 77.6615 19.1875 73.3906C21.6875 69.0677 24.7083 65.1615 28.25 61.6719C31.7917 58.1302 35.6979 55.1094 39.9688 52.6094C44.2396 50.1094 48.8229 48.1823 53.7188 46.8281C58.6667 45.4219 63.7969 44.7188 69.1094 44.7188C76.0365 44.7188 82.7031 45.9167 89.1094 48.3125C95.5156 50.6562 101.323 54.0417 106.531 58.4688L94.8125 78C91.4271 74.5625 87.5208 71.8802 83.0938 69.9531C78.6667 67.974 74.0052 66.9844 69.1094 66.9844C64.2135 66.9844 59.6042 67.9219 55.2812 69.7969C51.0104 71.6719 47.2604 74.224 44.0312 77.4531C40.8021 80.6302 38.25 84.3802 36.375 88.7031C34.5 92.974 33.5625 97.5573 33.5625 102.453C33.5625 107.401 34.5 112.036 36.375 116.359C38.25 120.682 40.8021 124.458 44.0312 127.688C47.2604 130.917 51.0104 133.469 55.2812 135.344C59.6042 137.219 64.2135 138.156 69.1094 138.156C71.9219 138.156 74.6562 137.818 77.3125 137.141C79.9688 136.464 82.4948 135.526 84.8906 134.328V102.453H106.531V146.672Z" fill="#16A600"/>
<defs>
<clipPath id="clip0_5_67">
<rect width="60.5883" height="60.5883" fill="white" transform="translate(100.023 72.1255) rotate(98.6626)"/>
</clipPath>
</defs>
</svg>
